<?xml version="1.0" encoding="UTF-8" standalone="no"?>
<!DOCTYPE svg PUBLIC "-//W3C//DTD SVG 1.1//EN" "http://www.w3.org/Graphics/SVG/1.1/DTD/svg11.dtd">
<svg xmlns="http://www.w3.org/2000/svg" xmlns:xlink="http://www.w3.org/1999/xlink" version="1.1" width="3936.9998pt" height="3936.9998pt" viewBox="0 0 3936.9998 3936.9998">
<g>
<clipPath id="cp0">
<path transform="matrix(2.7777777,0,0,-2.7777777,0,3936.9998)" d="M 0 0 L 1417.32 0 L 1417.32 1417.32 L 0 1417.32 Z "/>
</clipPath>
<g clip-path="url(#cp0)">
<path transform="matrix(2.7777777,0,0,-2.7777777,0,3936.9998)" d="M 1013.495 981.1169 C 991.1368 1013.655 936.7438 1052.605 879.7188 1022.833 C 906.8348 1022.013 912.6858 1024.97 935.8248 1010.932 C 948.5688 1003.198 963.7288 988.8539 969.0098 972.8229 C 946.3088 988.1159 923.6978 996.5839 892.6288 990.0279 C 866.3168 984.4779 846.0978 967.7879 837.0308 948.7929 C 856.3608 957.5629 856.4258 966.8239 897.6668 964.9119 C 916.1308 964.0549 942.7748 955.6749 954.8148 946.6699 C 911.6118 946.4649 896.5118 945.5649 869.4278 921.6579 C 793.0448 854.2289 904.2948 766.7929 809.0508 663.4679 C 793.1298 646.1959 767.6198 628.4149 746.3468 612.7519 C 724.5078 596.6749 704.1038 577.6699 687.4378 558.3399 C 652.0938 517.3339 629.7868 454.2159 648.2928 383.1019 C 688.2558 229.5429 899.0708 175.5819 993.9058 301.5229 C 1019.807 335.9219 1030.812 388.9299 1006.416 430.4929 C 981.9128 472.2409 929.2558 487.2889 900.7398 441.0509 C 926.3168 444.0759 943.3718 437.3369 955.5808 421.6259 C 967.7968 405.9029 968.2208 380.4169 959.0778 361.2519 C 943.8948 329.4369 902.5968 307.1809 852.3548 318.4379 C 773.0728 336.1989 732.8368 437.5609 787.4208 514.2329 C 799.8988 531.7579 810.0288 541.9689 823.9298 555.4229 C 839.2328 570.2319 869.6708 597.8839 882.3778 613.4779 C 900.6718 635.9369 914.1898 661.1119 922.4808 689.8979 C 937.6828 742.6669 921.2558 779.1759 918.7088 829.7369 C 916.1448 880.6729 942.4978 914.3319 973.6948 930.4719 C 973.6358 889.5279 971.0448 879.6989 1016.521 857.0459 C 1031.841 849.4129 1040.218 840.9099 1049.314 829.2239 C 1059.267 816.4279 1061.797 806.1619 1064.931 792.0439 L 1066.443 786.8279 C 1066.555 786.5069 1066.732 785.9589 1066.949 785.5569 C 1081.973 786.7459 1084.496 789.4229 1091.715 798.7119 C 1096.654 805.0669 1104.234 814.6469 1107.355 822.7379 C 1075.765 818.0989 1065.199 841.7429 1046.75 868.5669 C 1042.295 875.0459 1035.174 884.1649 1032.187 892.0269 C 1071.883 889.9379 1122.822 885.7239 1117.771 841.8769 C 1124.628 845.3879 1126.655 849.2539 1131.345 855.4909 C 1145.091 873.7779 1160.073 869.2589 1164.37 860.3959 C 1168.104 852.6949 1166.392 844.2129 1165.3 836.2959 C 1181.848 850.8029 1198.144 902.2159 1163.088 908.7719 C 1118.166 917.1779 1109.643 925.9009 1103.139 961.8039 C 1102.764 962.0159 1102.166 962.6799 1101.964 962.3309 L 1073.085 974.1069 C 1066.247 978.0129 1067.243 978.5599 1065.099 987.8899 C 1063.665 994.1199 1062.05 998.8709 1059.791 1004.41 C 1055.879 1014.011 1049.294 1023.73 1043.804 1030.372 L 1019.892 1049.924 C 983.9498 1071.742 956.0698 1066.122 924.3698 1081.723 C 908.1308 1089.716 907.1638 1096.123 898.5398 1100.506 C 910.3648 1073.771 944.6108 1061.894 966.5528 1050.919 C 987.2008 1040.594 1021.581 1014.597 1013.495 981.1169 M 1095.024 911.6689 C 1053.652 914.3149 1051.541 912.7149 1030.279 936.0569 C 1016.731 950.9289 1020.59 944.1369 1015.585 949.2679 C 1033.817 950.5229 1054.654 951.5039 1068.609 943.3059 C 1077.69 937.9689 1091.471 919.9729 1095.024 911.6689 " fill="#c000ed" fill-rule="evenodd"/>
<path transform="matrix(2.7777777,0,0,-2.7777777,0,3936.9998)" d="M 328.4925 962.5461 C 326.3895 956.0381 326.1845 945.7101 323.4865 939.3171 C 320.3475 931.8881 316.1055 928.3271 310.5215 924.3211 C 297.8865 915.2581 286.6665 912.1021 268.3345 909.0281 C 230.9735 902.7721 248.9355 852.9191 264.8035 836.4581 C 265.0075 840.6951 258.9545 872.0381 283.2505 867.9151 C 296.6165 865.6481 300.9645 850.0821 313.6775 841.2781 C 312.5905 866.0271 321.8685 875.2811 341.1385 882.8721 C 357.0285 889.1381 381.2645 892.0681 400.0515 891.7101 C 397.8375 884.9711 375.6715 854.8171 370.8985 848.4071 C 361.2445 835.4531 350.0365 818.2761 326.3555 822.8351 C 326.5595 814.9101 343.2175 795.8881 349.9615 790.2321 C 354.7145 786.2391 359.0835 785.9421 366.8745 785.4221 C 370.4575 852.8811 430.3575 853.6751 449.9645 881.2511 C 460.5015 896.0701 459.9355 910.9401 457.8405 930.7871 C 487.6135 919.9241 513.8935 877.9211 513.8935 840.6191 C 513.8935 798.6711 502.9695 781.3611 503.0105 736.5271 C 503.0895 664.2541 545.4615 610.3701 579.1075 577.6041 L 607.8765 606.7261 C 614.9535 612.8581 635.6085 628.1201 639.5715 634.3461 C 634.8775 638.3801 629.4825 645.0151 624.9945 650.3291 C 612.2515 665.4261 598.2115 689.4091 590.7985 709.3671 C 557.8065 798.1681 626.0035 844.5161 567.9545 916.4211 C 565.0545 920.0141 556.0945 927.5341 551.3625 930.9461 C 527.4895 948.1631 502.5945 947.0381 477.0965 946.8021 C 488.1635 954.9571 518.7825 964.2911 535.5405 965.0601 C 557.6055 966.0751 586.7375 959.4931 595.6025 947.1481 C 594.6585 953.7201 579.3735 969.2811 574.6345 972.9151 C 564.8465 980.4241 556.2115 985.8661 541.7115 989.5701 C 527.7565 993.1351 510.0195 992.6761 495.9415 988.9841 C 479.5135 984.6791 473.1615 978.7511 462.2585 972.6111 C 467.2985 986.1681 482.7345 1002.653 493.6445 1009.944 C 511.2885 1021.73 525.6195 1021.959 550.6385 1022.836 C 528.0295 1034.741 496.6285 1035.65 471.8105 1025.562 C 459.6515 1020.622 449.2265 1013.463 440.9465 1006.717 C 431.5525 999.0631 427.0415 989.3291 417.3745 980.4201 C 417.0005 1046.484 476.3555 1049.261 507.9515 1071.842 C 517.3225 1078.543 532.7485 1092.832 537.1585 1104.882 C 518.9805 1087.576 512.8845 1079.616 482.2905 1072.573 C 439.7055 1062.768 396.1845 1057.387 372.5535 1006.79 C 361.7435 983.6451 376.1255 975.9231 328.4925 962.5461 M 335.5855 910.9301 C 359.2465 945.7331 361.3465 949.3801 416.6445 949.5381 C 413.0755 946.0071 411.0555 947.1931 406.8105 943.0491 C 405.3455 941.6171 401.6925 937.0331 399.7975 934.5361 C 381.3765 910.1991 368.5325 915.1581 335.5855 910.9301 " fill="#c000ed" fill-rule="evenodd"/>
<path transform="matrix(2.7777777,0,0,-2.7777777,0,3936.9998)" d="M 695.7938 1050.003 L 688.5298 1060.326 C 665.6818 1100.402 697.1258 1163.24 609.3348 1176.8 C 598.7188 1178.439 590.4238 1181.038 583.6058 1186.855 C 579.2778 1190.551 571.1018 1200.095 569.2048 1206.472 C 568.9918 1122.31 646.4328 1198.277 640.8298 1080.219 C 636.4548 1087.205 632.4468 1100.402 620.7378 1109.067 C 612.0368 1115.504 598.3118 1122.275 584.0758 1121.279 C 626.1388 1089.596 615.3528 1075.068 623.6008 1046.123 C 616.3058 1049.102 613.9878 1067.709 566.7598 1068.445 C 586.9278 1056.388 603.2298 1045.928 615.3958 1026.003 C 631.1688 1000.159 618.9728 975.8872 652.5998 971.6922 C 687.9748 967.2822 689.7708 949.7602 678.8848 918.0092 C 672.3068 898.8222 673.9068 902.2652 684.3778 888.4012 C 691.3628 879.1552 695.9298 869.1062 703.4008 860.8732 C 702.5118 874.5742 705.9388 858.4932 717.4038 836.0572 C 727.3108 855.2482 731.8018 874.7582 731.3228 861.0002 C 735.9478 865.1222 745.0958 881.0112 749.7388 887.4562 C 760.2638 902.0682 762.3558 897.7502 754.7238 918.3532 C 742.3128 951.8392 749.7198 967.9492 783.4668 971.7612 C 813.6808 975.1702 804.0148 1003.701 818.3198 1027.049 C 829.3488 1045.055 845.3778 1057.73 867.5708 1068.245 C 845.5598 1070.445 824.1378 1062.754 810.9578 1045.554 C 811.3008 1075.798 824.3098 1108.282 850.7738 1121.169 C 830.0368 1121.576 812.2108 1112.647 801.1888 1097.035 L 791.9568 1078.826 C 791.1258 1175.103 835.2738 1146.782 854.0958 1166.876 C 861.3818 1174.659 866.0228 1190.348 866.3828 1204.497 C 855.5308 1189.622 854.1748 1180.72 824.3478 1176.43 C 797.2258 1172.532 789.2138 1169.818 774.8948 1154.414 C 745.2438 1122.513 766.0378 1079.554 738.1698 1049.075 C 745.9008 1077.084 733.5608 1102.847 732.0068 1132.511 C 730.3948 1163.357 728.4988 1186.14 716.9188 1211.711 C 709.6438 1195.331 704.6648 1153.859 703.2258 1132.683 C 700.9578 1099.222 690.4138 1086.825 695.7938 1050.003 M 661.9338 1036.816 C 666.6208 1032.533 674.2748 1028.479 679.2228 1024.611 C 684.3148 1020.625 698.9018 997.4122 699.7788 988.6992 C 670.1448 1000.503 649.0688 989.9842 649.0638 1053.174 C 653.6448 1049.333 656.7108 1041.587 661.9338 1036.816 M 733.4038 988.4822 C 741.4648 1002.285 742.9328 1014.554 755.3258 1024.841 C 760.9808 1029.534 768.2128 1032.91 772.6578 1037.026 C 777.0148 1041.06 779.8408 1047.546 784.2958 1053.028 C 788.4188 1007.599 771.3088 995.5902 733.4038 988.4822 " fill="#c000ed" fill-rule="evenodd"/>
<path transform="matrix(2.7777777,0,0,-2.7777777,0,3936.9998)" d="M 563.1826 440.2917 C 575.0576 462.0627 572.1896 496.5447 560.3376 515.8097 C 510.8436 596.2667 404.3616 521.2387 350.2866 576.0347 C 310.8776 615.9727 322.4706 676.0417 364.6456 696.1857 C 411.9416 718.7767 458.1976 684.2297 479.3256 638.4007 C 472.0066 700.3207 428.0876 754.1837 355.9546 739.0597 C 262.2666 719.4117 243.9416 582.6697 322.7896 528.4047 C 414.7866 465.0887 487.2706 573.4187 553.2466 458.9757 C 556.9256 452.5987 559.5066 445.7207 563.1826 440.2917 " fill="#c000ed" fill-rule="evenodd"/>
<path transform="matrix(2.7777777,0,0,-2.7777777,0,3936.9998)" d="M 951.3737 638.0442 C 952.4587 645.3062 962.8457 658.9782 967.2737 665.3092 C 973.4417 674.1262 981.9887 682.7562 990.6097 688.5432 C 1010.196 701.6992 1037.67 708.6562 1064.333 696.6502 C 1110.963 675.6582 1117.311 611.4612 1079.592 576.2502 C 1030.976 530.8622 985.5617 567.8262 923.5567 553.5522 C 897.2467 547.4982 880.1627 533.4322 869.3417 516.1682 C 853.7287 491.2582 857.6597 468.8352 865.1397 440.2362 C 869.2317 444.3932 881.6397 469.1422 886.1597 476.0652 C 918.7087 525.9162 969.3357 514.5752 1014.504 508.7802 C 1054.196 503.6832 1079.701 508.5232 1106.767 527.3782 C 1155.232 561.1392 1174.497 632.4832 1140.199 690.1022 C 1136.972 695.5212 1131.676 703.0542 1128.336 706.3142 C 1124.129 710.4272 1117.789 717.2382 1113.126 720.5542 C 1070.782 750.6632 1019.95 748.4832 986.6987 715.7912 C 976.1067 705.3752 970.2167 697.7952 963.3557 681.6552 C 959.8367 673.3712 950.5957 646.9612 951.3737 638.0442 " fill="#c000ed" fill-rule="evenodd"/>
<path transform="matrix(2.7777777,0,0,-2.7777777,0,3936.9998)" d="M 669.7974 235.5883 C 668.1634 237.4913 669.1784 236.5653 666.8844 238.3083 L 657.0104 244.2683 C 630.2174 260.5173 595.2534 291.0143 582.9014 317.5663 C 529.2564 308.2343 493.1924 323.8433 473.7424 357.7183 C 463.3594 375.8053 462.5764 399.4843 473.1654 418.2993 C 482.8074 435.4373 500.2074 443.8603 528.3344 441.0433 C 513.4254 475.2793 459.2714 483.4773 427.0834 434.8413 C 400.8304 395.1773 409.1714 346.2813 432.7924 309.0073 C 452.0134 278.6813 483.2164 254.3013 526.5944 239.6733 C 577.4204 222.5323 617.8344 225.5713 669.7974 235.5883 " fill="#c000ed" fill-rule="evenodd"/>
<path transform="matrix(2.7777777,0,0,-2.7777777,0,3936.9998)" d="M 1050.761 402.9723 L 1056.774 409.6963 C 1059.25 411.9293 1060.467 412.2543 1063.582 413.6323 C 1069.331 416.1823 1073.765 417.6973 1079.024 419.9123 C 1108.928 432.5173 1132.645 467.4303 1133.38 495.1593 C 1094.487 449.8953 1067.611 465.4003 1049.41 438.6573 C 1039.11 423.5153 1048.877 420.5453 1050.761 402.9723 " fill="#c000ed" fill-rule="evenodd"/>
<path transform="matrix(2.7777777,0,0,-2.7777777,0,3936.9998)" d="M 378.6902 402.812 C 383.9852 412.449 387.9622 426.972 382.0342 436.92 C 365.3542 464.92 323.7432 454.906 296.8002 495.458 C 299.8562 464.125 322.1082 431.903 351.1862 420.053 C 372.1292 411.519 371.1652 417.116 378.6902 402.812 " fill="#c000ed" fill-rule="evenodd"/>
<path transform="matrix(2.7777777,0,0,-2.7777777,0,3936.9998)" d="M 776.1221 826.1851 C 751.4041 795.0611 683.1411 795.5801 657.0451 826.3001 C 656.1501 792.6981 683.2391 780.0031 715.8141 779.7301 C 748.2441 779.4561 779.5531 791.7811 776.1221 826.1851 " fill="#c000ed" fill-rule="evenodd"/>
<path transform="matrix(2.7777777,0,0,-2.7777777,0,3936.9998)" d="M 775.7621 777.837 C 758.9791 754.911 691.1031 743.016 657.0961 779.72 C 657.2941 746.644 681.7451 733.43 715.7971 733.267 C 746.1661 733.125 780.2211 745.563 775.7621 777.837 " fill="#c000ed" fill-rule="evenodd"/>
<path transform="matrix(2.7777777,0,0,-2.7777777,0,3936.9998)" d="M 776.0256 731.507 C 753.1676 709.741 714.3346 702.018 681.7756 716.417 C 668.7106 722.196 666.3436 724.76 657.2776 733.104 C 659.4796 715.354 661.6466 706.103 673.9736 697.798 C 704.5046 677.224 777.7926 681.499 776.0256 731.507 " fill="#c000ed" fill-rule="evenodd"/>
<path transform="matrix(2.7777777,0,0,-2.7777777,0,3936.9998)" d="M 261.0396 747.3095 C 275.6896 748.6045 289.6036 756.6675 295.9106 766.4135 C 304.7626 780.0995 295.5666 796.1975 302.9336 814.4065 C 270.2736 803.8695 289.1046 772.9635 263.9206 749.9875 Z " fill="#c000ed" fill-rule="evenodd"/>
<path transform="matrix(2.7777777,0,0,-2.7777777,0,3936.9998)" d="M 1168.193 747.5074 C 1155.177 761.7434 1154.578 758.3834 1151.334 783.2604 C 1150.118 792.5944 1148.476 797.1354 1143.753 802.5064 C 1138.719 808.2294 1135.004 811.3184 1128.606 813.9414 C 1137.533 797.4944 1124.942 782.1754 1133.642 767.4814 C 1140.213 756.3874 1151.964 748.9134 1168.193 747.5074 " fill="#c000ed" fill-rule="evenodd"/>
</g>
</g>
</svg>
